<?xml version="1.0" encoding="utf-8"?>
<!-- Generator: Adobe Illustrator 16.0.0, SVG Export Plug-In . SVG Version: 6.00 Build 0)  -->
<!DOCTYPE svg PUBLIC "-//W3C//DTD SVG 1.1//EN" "http://www.w3.org/Graphics/SVG/1.1/DTD/svg11.dtd">
<svg version="1.1" id="Layer_11" xmlns="http://www.w3.org/2000/svg" xmlns:xlink="http://www.w3.org/1999/xlink" x="0px" y="0px"
	 width="1024px" height="1024px" viewBox="0 0 1024 1024" style="enable-background:new 0 0 1024 1024;" xml:space="preserve">
<rect x="-1" y="1" style="fill:#60C3AC;" width="1024" height="1024"/>
<g>
	<path style="fill:#FFFFFF;" d="M906.18,208.736c-16.558-24.219-38.067-43.252-63.926-56.587
		c-26.456-13.634-55.809-20.541-87.233-20.541H610.917c-113.522,0-162.763,128.059-166.532,146.446L327.533,817.076
		c-4.042,19.663-0.348,37.836,10.701,52.554l0.497,0.646c11.794,14.471,28.658,22.116,48.802,22.116
		c18.305,0,35.632-6.378,51.485-18.969l0.521-0.422c15.356-13.02,25.071-29.03,28.857-47.451l41.811-187.099h0.092l0.141-0.638
		h147.938c13.269,0,26.653-1.325,40.097-3.785c1.599-0.257,3.188-0.579,4.778-0.878c0.299-0.058,0.604-0.099,0.911-0.165v-0.009
		c14.412-2.758,28.601-7.289,45.539-14.403c29.908-12.64,57.862-30.68,82.942-53.498c53.838-48.146,88.666-107.244,103.5-175.734
		C950.89,319.883,940.802,259.104,906.18,208.736z M795.341,380.569c-7.024,31.955-22.28,59.039-46.648,82.794
		c-4.092,3.868-8.158,7.272-12.226,10.453c-18.794,14.337-37.487,21.104-56.794,21.104H540.829l22.38-105.257L576.66,326.4
		c5.193-13.732,14.081-25.816,26.53-35.938l0.521-0.422c11.562-8.813,23.92-14.379,36.875-16.69h92.981
		c22.495,0,38.87,9.318,51.534,29.321C798.388,324.611,801.735,350.172,795.341,380.569z"/>
	<path style="fill:#FFFFFF;" d="M379.3,231.729l-0.331-0.423c-7.521-9.227-18.272-14.105-31.11-14.105
		c-11.687,0-22.736,4.075-32.841,12.102l-0.34,0.273c-9.79,8.299-15.994,18.503-18.404,30.248l-26.347,124.465h-0.158
		l-69.972,329.153c-2.584,12.541-0.215,24.137,6.825,33.513l0.323,0.422c7.513,9.228,18.271,14.098,31.102,14.098
		c11.687,0,22.736-4.059,32.85-12.093l0.339-0.273c9.782-8.299,15.986-18.511,18.396-30.257l26.339-124.465h0.182l69.956-329.153
		C388.685,252.693,386.34,241.105,379.3,231.729z"/>
	<path style="fill:#FFFFFF;" d="M220.355,280.953l-0.282-0.372c-6.593-8.084-16.027-12.358-27.274-12.358
		c-10.229,0-19.92,3.562-28.783,10.603l-0.298,0.24c-8.581,7.28-14.014,16.226-16.126,26.521l-3.967,15.315h-0.133L82.167,609.404
		c-2.253,10.999-0.19,21.162,5.98,29.378l0.282,0.373c6.593,8.076,16.019,12.35,27.267,12.35c10.237,0,19.92-3.553,28.791-10.61
		l0.29-0.216c8.581-7.288,14.022-16.233,16.126-26.537l23.092-109.074h0.149l42.192-194.743
		C228.588,299.333,226.517,289.17,220.355,280.953z"/>
</g>
</svg>
